<svg width="90" height="90" viewBox="0 0 90 90" fill="none" xmlns="http://www.w3.org/2000/svg">
<g clip-path="url(#clip0)">
<path d="M65.9272 56.3528L65.8476 56.3129L60.4168 54.4624L60.3417 54.4463C57.9504 53.9318 55.252 53.6709 52.3212 53.6709H37.6793C34.7485 53.6709 32.0501 53.9318 29.6588 54.4463L29.5837 54.4624L24.1531 56.3129L24.0735 56.3528C15.6059 60.5826 15.656 68.1732 15.6622 68.4942L15.6875 69.7869H74.3134L74.3387 68.4942C74.3446 68.1732 74.3947 60.5826 65.9272 56.3528Z" fill="#FF7E50"/>
<path d="M62.9998 59.3637C59.6308 57.8596 57.0936 56.556 55.5253 54.4521C54.3266 52.8413 53.6967 50.7575 53.6967 47.756C53.6967 46.7867 53.0938 46 52.3509 46H37.658C36.9151 46 36.3122 46.7867 36.3122 47.756C36.3122 49.5869 36.0771 51.0783 35.6213 52.3262C35.3324 53.1246 34.9502 53.8246 34.4836 54.4521C33.241 56.1191 31.3906 57.2834 29 58.4433V90H63V59.3637H62.9998Z" fill="#FFDDCE"/>
<path d="M80 88.244C80 89.2133 79.4124 90 78.6884 90H73.442C74.166 90 74.7536 89.2133 74.7536 88.244C74.7536 67.2215 65.4744 63.0142 58.0175 59.6334C55.6688 58.5681 53.7102 57.6292 52.1835 56.4796C50.4819 57.2452 48.7068 57.6409 46.8933 57.6409C42.9638 57.6409 39.2161 55.7866 36.0017 52.3262H36C36.4442 51.0783 36.6733 49.5869 36.6733 47.756C36.6733 46.7867 37.2609 46 37.9849 46H52.3041C53.0281 46 53.6157 46.7867 53.6157 47.756C53.6157 50.7575 54.2296 52.8413 55.3978 54.4521C57.0154 56.6787 59.6893 58.0085 63.2639 59.6287C70.7208 63.0095 80 67.2168 80 88.244Z" fill="#FFCBBE"/>
<path d="M80 88.2217C80 89.2033 79.41 90 78.683 90H11.317C10.59 90 10 89.2033 10 88.2217C10 66.9271 19.3176 62.6663 26.8055 59.2424C30.3949 57.6017 33.0799 56.2549 34.7042 54C34.8096 54.1826 38.7853 60.9615 45 60.9615C48.5578 60.9615 51.3798 58.7398 53.1639 56.8073C54.4985 55.3634 55.2501 54.0782 55.2958 54C56.9201 56.2549 59.6051 57.6017 63.1945 59.2424C70.6824 62.6663 80 66.9271 80 88.2217Z" fill="#EEF0F5"/>
<path d="M80 88.2217C80 89.2033 79.4064 90 78.6749 90H73.3746C74.106 90 74.6996 89.2033 74.6996 88.2217C74.6996 66.9318 65.3251 62.671 57.7915 59.2472C55.9505 58.4102 54.3463 57.6491 53 56.8073C54.3428 55.3634 55.0989 54.0782 55.1449 54C56.7792 56.2549 59.4806 57.6017 63.0919 59.2424C70.6254 62.6663 80 66.9271 80 88.2217Z" fill="#DAE1EA"/>
<path d="M45 84.0869C44.2719 84.0869 43.6816 84.677 43.6816 85.4053V88.6817C43.6816 89.4099 44.2719 90 45 90C45.7281 90 46.3184 89.4099 46.3184 88.6817V85.4053C46.3184 84.6772 45.7281 84.0869 45 84.0869Z" fill="#DAE1EA"/>
<path d="M30.8322 56.3857C30.598 56.046 30.2006 55.9222 29.8481 56.0483L24.5981 57.9327C24.2408 58.061 24 58.4209 24 58.8263V90H31V56.9739C31 56.7642 30.9482 56.5541 30.8322 56.3857Z" fill="#407093"/>
<path d="M65.4019 57.9327L60.1519 56.0482C59.7998 55.9222 59.4018 56.0461 59.1677 56.3858C59.0518 56.5543 59 56.7644 59 56.9739V90H66V58.8261C66.0002 58.4208 65.7592 58.061 65.4019 57.9327Z" fill="#407093"/>
<path d="M64.3126 29.3161C64.1554 29.7281 63.7652 30 63.3315 30H27.639C27.2797 30 26.9471 29.8141 26.7534 29.5064C23.5927 24.4837 23.4776 15.6312 24.7857 11.497C26.1569 6.96059 30.3843 3.68609 37.0074 2.03946C41.1814 0.998024 45.7274 0.723396 49.4803 1.28696C54.3252 2.01372 57.6656 4.09231 59.1392 7.29673C59.1463 7.31389 59.1533 7.33105 59.1603 7.34822C59.2024 7.45263 59.2964 7.52558 59.4073 7.53702C61.2613 7.72154 62.8515 8.8159 63.9898 10.7028C66.5399 14.9275 66.6817 23.1033 64.3126 29.3161Z" fill="#567A8C"/>
<path d="M64.2847 29.2998C64.1249 29.7216 63.7283 30 63.2874 30H53.1708V16.9297C53.1708 16.9297 51.3946 7 59.2984 7C61.1831 7.18893 62.7995 8.30946 63.9565 10.2415C66.5488 14.5671 66.6929 22.9383 64.2847 29.2998Z" fill="#415E6F"/>
<path d="M64.2083 29.2998C64.0414 29.7216 63.6271 30 63.1666 30H60.6333C61.0938 30 61.5742 29.7415 61.6749 29.2998C64.385 17.423 61.7077 11.3254 59 7C60.9686 7.18893 62.657 8.30946 63.8656 10.2415C66.5733 14.5671 66.7238 22.9383 64.2083 29.2998Z" fill="#003343"/>
<path d="M30.8334 28.4897C30.8008 28.0835 30.5384 27.7321 30.1582 27.5856C29.629 27.3814 29.071 27.278 28.4996 27.278C25.9589 27.278 23.8918 29.3429 23.8918 31.881C23.8918 34.4192 25.9589 36.4841 28.4996 36.4841C29.3168 36.4841 30.1199 36.2673 30.8224 35.857C31.1741 35.6517 31.377 35.2628 31.3444 34.8568L30.8334 28.4897Z" fill="#D77D41"/>
<path d="M61.497 27.2772C60.9257 27.2772 60.3677 27.3807 59.8385 27.5847C59.4584 27.7312 59.1959 28.0827 59.1634 28.4888L58.6521 34.8558C58.6195 35.2618 58.8222 35.6505 59.1738 35.856C59.8764 36.2663 60.6797 36.4832 61.497 36.4832C64.0377 36.4832 66.1048 34.4183 66.1048 31.8802C66.1048 29.342 64.0379 27.2772 61.497 27.2772Z" fill="#D77D41"/>
<path d="M62 24.0325V29.9693C62 35.2744 60.2625 40.2726 57.1062 44.0422C53.8906 47.8848 49.5899 50 45 50C40.4087 50 36.1094 47.8848 32.8938 44.0422C29.7375 40.2726 28 35.2742 28 29.9693V24.0325C28 19.603 31.813 16 36.5007 16H53.4993C58.187 16 62 19.603 62 24.0325Z" fill="#FFDDCE"/>
<path d="M62 24.1554V27C62 22.5027 58.187 18.8446 53.4993 18.8446H36.5007C31.813 18.8446 28 22.5027 28 27V24.1554C28 19.6581 31.813 16 36.5007 16H53.4993C58.187 16 62 19.6581 62 24.1554Z" fill="#FFCBBE"/>
</g>
<defs>
<clipPath id="clip0">
<rect width="90" height="90" fill="white"/>
</clipPath>
</defs>
</svg>
