<svg width="20" height="20" viewBox="0 0 20 20" fill="none" xmlns="http://www.w3.org/2000/svg">
<g clip-path="url(#clip0)">
<path d="M19.1668 19.9992C18.9535 19.9992 18.7401 19.9175 18.5776 19.755L12.761 13.9383C12.4351 13.6125 12.4351 13.0858 12.761 12.76C13.0868 12.4342 13.6135 12.4342 13.9393 12.76L19.756 18.5767C20.0818 18.9025 20.0818 19.4292 19.756 19.755C19.5935 19.9175 19.3801 19.9992 19.1668 19.9992Z" fill="white"/>
<path d="M8.125 16.25C3.645 16.25 0 12.605 0 8.125C0 3.645 3.645 0 8.125 0C12.605 0 16.25 3.645 16.25 8.125C16.25 12.605 12.605 16.25 8.125 16.25ZM8.125 1.66667C4.56417 1.66667 1.66667 4.56417 1.66667 8.125C1.66667 11.6858 4.56417 14.5833 8.125 14.5833C11.6858 14.5833 14.5833 11.6858 14.5833 8.125C14.5833 4.56417 11.6858 1.66667 8.125 1.66667Z" fill="white"/>
</g>
<defs>
<clipPath id="clip0">
<rect width="20" height="20" fill="white"/>
</clipPath>
</defs>
</svg>
