<svg width="90" height="90" viewBox="0 0 90 90" fill="none" xmlns="http://www.w3.org/2000/svg">
<g clip-path="url(#clip0)">
<path d="M59 58.0666V45H31V58.0666L45 73L59 58.0666Z" fill="#FFDDCE"/>
<path d="M80.2561 64.3582L61.2187 58.9189C60.9312 58.8368 60.6668 58.6973 60.4193 58.5282L45.0002 69.4502L30.1824 58C29.7988 58.4385 29.3226 58.7644 28.7818 58.9191L9.74447 64.3584C6.96458 65.1527 5 68.1647 5 71.6324V86.2638C5 88.3274 6.37757 90 8.07688 90H81.9231C83.6226 90 85 88.3272 85 86.2638V71.6324C85.0004 68.1645 83.0358 65.1523 80.2561 64.3582Z" fill="#EFF2FA"/>
<path d="M31 45.0002V59.1534C48.6362 66.9812 59 47.39 59 47.39V45H31V45.0002Z" fill="#F5C1B4"/>
<path d="M28 15L29.1395 40.3335C29.2459 42.7002 30.3943 44.8949 32.2698 46.3163L37.6768 50.4142C39.035 51.4434 40.6868 52 42.3846 52H47.6154C49.3132 52 50.965 51.4436 52.3232 50.4142L57.7302 46.3163C59.6057 44.8948 60.7541 42.7003 60.8605 40.3335L62 15C61.9999 15 28 15 28 15Z" fill="#FFDDCE"/>
<path d="M41.0701 20.2858C46.2981 20.2858 54.14 18.9644 56 15H28L29.1389 40.3335C29.2452 42.7001 30.393 44.8948 32.2677 46.3163L37.6718 50.4142C39.0293 51.4434 40.6802 52 42.3771 52H44.991C42.3771 52 37.149 46.7142 37.149 40.1072C37.149 36.8757 37.149 28.2144 37.149 24.25C37.149 22.9286 38.456 20.2858 41.0701 20.2858Z" fill="#FFCBBE"/>
<path d="M16.4197 77.875L6.33984 67C5.49519 68.2845 5 69.9009 5 71.6313V86.2635C5 88.3273 6.39288 90 8.11107 90H19V84.8243C18.9998 82.173 18.0618 79.6465 16.4197 77.875Z" fill="#E4EAF6"/>
<path d="M73.5803 77.875L83.6602 67C84.5048 68.2845 85 69.9009 85 71.6313V86.2635C85 88.3273 83.6071 90 81.8889 90H71V84.8243C71 82.173 71.938 79.6465 73.5803 77.875Z" fill="#E4EAF6"/>
<path d="M49 90H41L42 73H48L49 90Z" fill="#407093"/>
<path d="M49 69H41V72.764C41 73.999 41.8008 75 42.7888 75H47.211C48.199 75 48.9998 73.999 48.9998 72.764V69H49Z" fill="#5890BA"/>
<path d="M30.5275 53.4861L45 69.0607C45 69.0607 40.9469 71.5072 35.9453 76.4384C34.9135 77.4554 33.3528 77.0434 32.7995 75.5877L26 57.7013L28.151 53.8434C28.6863 52.8826 29.8099 52.714 30.5275 53.4861Z" fill="#E4EAF6"/>
<path d="M59.4725 53.4861L45 69.0607C45 69.0607 49.0531 71.5072 54.0547 76.4384C55.0865 77.4554 56.6472 77.0434 57.2005 75.5877L64 57.7013L61.849 53.8434C61.3135 52.8826 60.19 52.714 59.4725 53.4861Z" fill="#E4EAF6"/>
<path d="M53 6.7978L54.2324 15.3056C59.8583 16.4047 60.6691 25.0292 60.7858 27.4925C60.807 27.9396 60.9531 28.3712 61.2014 28.7473L63.3479 32C63.3479 32 62.6132 26.6224 65.9771 23.0106C65.9773 23.0106 67.1324 1.66097 53 6.7978Z" fill="#785550"/>
<path d="M64.909 31.5388L63.2748 37.7479C63.0812 38.4839 62.3852 39 61.5864 39C60.7086 39 59.9683 38.3793 59.8594 37.552L59.0236 31.2012C58.7999 29.5013 60.1951 28 61.9987 28H62C63.9508 28.0002 65.3821 29.7412 64.909 31.5388Z" fill="#FFDDCE"/>
<path d="M29.3742 4.34028L31.3364 5.64523C22.4646 12.022 24.1228 22.9595 24.1228 22.9595C26.776 25.5424 26.776 32 26.776 32L29.4292 29.417C29.4292 29.417 28.4053 21.9555 33.4091 19.085C38.0523 16.4213 42.1152 17.7935 46.2609 17.7935C57.3715 17.7935 60.4809 13.7172 59.9419 8.75301C59.663 6.18438 55.6289 0.833805 45.349 1.00396C41.2003 1.07258 33.4094 2.29545 29.3742 4.34028Z" fill="#694B4B"/>
<path d="M28.5926 16.2878C28.5926 16.2878 27.1853 10.7472 31.3242 5C22.4672 11.5329 24.1226 22.7381 24.1226 22.7381C26.7714 25.3843 26.7714 32 26.7714 32L29.4202 29.3538C29.4202 29.3538 28.398 21.7096 33.3934 18.7688C38.029 16.0399 42.085 17.4457 46.2239 17.4457C48.0278 17.4457 49.5998 17.3251 51 17.1182C42.4579 17.4042 37.4223 10.9401 28.5926 16.2878Z" fill="#5A4146"/>
<path d="M25.091 31.5388L26.7252 37.7479C26.9188 38.4839 27.6148 39 28.4136 39C29.2914 39 30.0317 38.3793 30.1406 37.552L30.9764 31.2012C31.2001 29.5013 29.8049 28 28.0013 28H28C26.0492 28.0002 24.6179 29.7412 25.091 31.5388Z" fill="#FFCBBE"/>
<path d="M65.4445 86H54.5555C53.6964 86 53 86.8954 53 88V90H67V88C67 86.8957 66.3034 86 65.4445 86Z" fill="#E4EAF6"/>
</g>
<defs>
<clipPath id="clip0">
<rect width="90" height="90" fill="white"/>
</clipPath>
</defs>
</svg>
