<svg width="50" height="50" viewBox="0 0 50 50" fill="none" xmlns="http://www.w3.org/2000/svg">
<path d="M49.714 16.3017L44.7266 11.3142V0.976562C44.7266 0.437207 44.2893 0 43.75 0H29.3631C28.8238 0 28.3865 0.437207 28.3865 0.976562C28.3865 1.51592 28.8238 1.95312 29.3631 1.95312H42.7734V21.861L24.9561 39.6785L7.22656 21.949V1.95312H20.574C21.1133 1.95312 21.5506 1.51592 21.5506 0.976562C21.5506 0.437207 21.1133 0 20.574 0H6.25C5.71074 0 5.27344 0.437207 5.27344 0.976562V11.3142L0.286035 16.3017C0.10293 16.4848 0 16.7332 0 16.9922V45.1172C0 47.8096 2.19043 50 4.88281 50H45.1172C47.8096 50 50 47.8096 50 45.1172V16.9922C50 16.7332 49.8971 16.4848 49.714 16.3017ZM48.0469 45.1172C48.0469 45.5688 47.9439 45.997 47.7605 46.3795L34.389 33.0078L48.0469 19.3499V45.1172ZM44.7266 14.0764L47.6424 16.9922L44.7266 19.9079V14.0764ZM2.23945 46.3795C2.05605 45.997 1.95312 45.5689 1.95312 45.1172V19.4377L15.5671 33.0518L2.23945 46.3795ZM5.27344 19.9958L2.31367 17.0361L5.27344 14.0764V19.9958ZM4.88281 48.0469C4.43115 48.0469 4.00303 47.9439 3.62061 47.7605L16.9482 34.4328L24.2655 41.7501C24.4487 41.9332 24.6971 42.0361 24.9561 42.0361C25.215 42.0361 25.4634 41.9332 25.6466 41.7501L33.0078 34.389L46.3795 47.7606C45.997 47.944 45.5689 48.047 45.1172 48.047H4.88281V48.0469Z" fill="#076FCD"/>
<path d="M24.9688 1.95312C25.2256 1.95312 25.4775 1.84863 25.6592 1.66699C25.8407 1.48535 25.9453 1.2334 25.9453 0.976562C25.9453 0.719727 25.8408 0.467773 25.6592 0.286133C25.4775 0.104492 25.2256 0 24.9688 0C24.7109 0 24.46 0.104492 24.2783 0.286133C24.0968 0.467773 23.9922 0.719727 23.9922 0.976562C23.9922 1.2334 24.0967 1.48535 24.2783 1.66699C24.46 1.84863 24.7109 1.95312 24.9688 1.95312Z" fill="#076FCD"/>
<path d="M15.7605 11.8334C14.4356 14.2407 14.0871 17.016 14.7794 19.6479C15.379 21.9278 16.6735 23.8946 18.5233 25.3357C20.3043 26.7233 22.5228 27.5217 24.7698 27.5839C24.7791 27.5841 24.7882 27.5842 24.7973 27.5842C25.3241 27.5842 25.7583 27.1646 25.7729 26.6346C25.7878 26.0956 25.3629 25.6464 24.8237 25.6315C20.9975 25.5257 17.6439 22.8609 16.6682 19.1512C15.4931 14.6832 18.0235 10.0846 22.429 8.68218C24.664 7.97066 27.0365 8.18023 29.1096 9.27202C31.1785 10.3616 32.6911 12.1926 33.3704 14.4291C33.8031 16.0632 33.6628 17.5782 32.9022 19.4907C32.6854 20.0359 32.012 21.3042 30.4456 21.3042C30.1979 21.3042 29.9472 21.1893 29.7396 20.9808C29.4613 20.7011 29.3029 20.3062 29.305 19.8925V11.8187C29.305 11.2794 28.8677 10.8421 28.3284 10.8421C27.7891 10.8421 27.3519 11.2794 27.3519 11.8187V12.1297C26.5896 11.4943 25.6427 11.1315 24.5818 11.1315C22.1154 11.1315 19.5643 13.2697 19.5643 16.8478C19.5643 18.4249 20.0641 19.9019 20.9716 21.0068C21.8915 22.127 23.17 22.7694 24.4791 22.7694C25.7062 22.7694 26.8114 22.2276 27.6529 21.3243C27.8223 21.7081 28.0589 22.0606 28.3552 22.3584C28.9319 22.938 29.6743 23.2572 30.4456 23.2572C32.7022 23.2572 34.1317 21.6843 34.7171 20.2124C35.6351 17.9041 35.8006 15.9604 35.2534 13.9102C35.2507 13.9001 35.2478 13.8899 35.2447 13.8798C34.4154 11.1318 32.5598 8.88159 30.0196 7.5439C27.4801 6.2064 24.5739 5.94966 21.8365 6.82105C19.243 7.64673 17.0852 9.42671 15.7605 11.8334ZM24.4792 20.8163C22.8461 20.8163 21.5175 19.036 21.5175 16.8477C21.5175 14.4921 23.0756 13.0845 24.5819 13.0845C26.2049 13.0845 27.3384 14.6199 27.3384 16.8181C27.3383 19.0227 26.0557 20.8163 24.4792 20.8163Z" fill="#076FCD"/>
</svg>
