<svg width="50" height="50" viewBox="0 0 50 50" fill="none" xmlns="http://www.w3.org/2000/svg">
<path d="M27.5 25C26.1193 25 25 26.1193 25 27.5C25 28.8807 26.1193 30 27.5 30C28.8807 30 30 28.8807 30 27.5C30 26.1193 28.8807 25 27.5 25ZM27.5 28.3333C27.0398 28.3333 26.6667 27.9602 26.6667 27.5C26.6667 27.0398 27.0398 26.6667 27.5 26.6667C27.9602 26.6667 28.3333 27.0398 28.3333 27.5C28.3333 27.9602 27.9602 28.3333 27.5 28.3333Z" fill="#076FCD"/>
<path d="M34.166 25C32.7853 25 31.666 26.1193 31.666 27.5C31.666 28.8807 32.7853 30 34.166 30C35.5467 30 36.666 28.8807 36.666 27.5C36.666 26.1193 35.5467 25 34.166 25ZM34.166 28.3333C33.7058 28.3333 33.3327 27.9602 33.3327 27.5C33.3327 27.0398 33.7058 26.6667 34.166 26.6667C34.6262 26.6667 34.9994 27.0398 34.9994 27.5C34.9994 27.9602 34.6262 28.3333 34.166 28.3333Z" fill="#076FCD"/>
<path d="M40.834 25C39.4533 25 38.334 26.1193 38.334 27.5C38.334 28.8807 39.4533 30 40.834 30C42.2147 30 43.334 28.8807 43.334 27.5C43.334 26.1193 42.2147 25 40.834 25ZM40.834 28.3333C40.3738 28.3333 40.0007 27.9602 40.0007 27.5C40.0007 27.0398 40.3738 26.6667 40.834 26.6667C41.2942 26.6667 41.6673 27.0398 41.6673 27.5C41.6673 27.9602 41.2942 28.3333 40.834 28.3333Z" fill="#076FCD"/>
<path d="M27.5 31.667C26.1193 31.667 25 32.7863 25 34.167C25 35.5477 26.1193 36.667 27.5 36.667C28.8807 36.667 30 35.5477 30 34.167C30 32.7863 28.8807 31.667 27.5 31.667ZM27.5 35.0003C27.0398 35.0003 26.6667 34.6272 26.6667 34.167C26.6667 33.7068 27.0398 33.3337 27.5 33.3337C27.9602 33.3337 28.3333 33.7068 28.3333 34.167C28.3333 34.6272 27.9602 35.0003 27.5 35.0003Z" fill="#076FCD"/>
<path d="M34.166 31.667C32.7853 31.667 31.666 32.7863 31.666 34.167C31.666 35.5477 32.7853 36.667 34.166 36.667C35.5467 36.667 36.666 35.5477 36.666 34.167C36.666 32.7863 35.5467 31.667 34.166 31.667ZM34.166 35.0003C33.7058 35.0003 33.3327 34.6272 33.3327 34.167C33.3327 33.7068 33.7058 33.3337 34.166 33.3337C34.6262 33.3337 34.9994 33.7068 34.9994 34.167C34.9994 34.6272 34.6262 35.0003 34.166 35.0003Z" fill="#076FCD"/>
<path d="M40.834 31.667C39.4533 31.667 38.334 32.7863 38.334 34.167C38.334 35.5477 39.4533 36.667 40.834 36.667C42.2147 36.667 43.334 35.5477 43.334 34.167C43.334 32.7863 42.2147 31.667 40.834 31.667ZM40.834 35.0003C40.3738 35.0003 40.0007 34.6272 40.0007 34.167C40.0007 33.7068 40.3738 33.3337 40.834 33.3337C41.2942 33.3337 41.6673 33.7068 41.6673 34.167C41.6673 34.6272 41.2942 35.0003 40.834 35.0003Z" fill="#076FCD"/>
<path d="M27.5 38.333C26.1193 38.333 25 39.4523 25 40.833C25 42.2137 26.1193 43.333 27.5 43.333C28.8807 43.333 30 42.2137 30 40.833C30 39.4523 28.8807 38.333 27.5 38.333ZM27.5 41.6663C27.0398 41.6663 26.6667 41.2932 26.6667 40.833C26.6667 40.3728 27.0398 39.9997 27.5 39.9997C27.9602 39.9997 28.3333 40.3728 28.3333 40.833C28.3333 41.2932 27.9602 41.6663 27.5 41.6663Z" fill="#076FCD"/>
<path d="M34.166 38.333C32.7853 38.333 31.666 39.4523 31.666 40.833C31.666 42.2137 32.7853 43.333 34.166 43.333C35.5467 43.333 36.666 42.2137 36.666 40.833C36.666 39.4523 35.5467 38.333 34.166 38.333ZM34.166 41.6663C33.7058 41.6663 33.3327 41.2932 33.3327 40.833C33.3327 40.3728 33.7058 39.9997 34.166 39.9997C34.6262 39.9997 34.9994 40.3728 34.9994 40.833C34.9994 41.2932 34.6262 41.6663 34.166 41.6663Z" fill="#076FCD"/>
<path d="M40.834 38.333C39.4533 38.333 38.334 39.4523 38.334 40.833C38.334 42.2137 39.4533 43.333 40.834 43.333C42.2147 43.333 43.334 42.2137 43.334 40.833C43.334 39.4523 42.2147 38.333 40.834 38.333ZM40.834 41.6663C40.3738 41.6663 40.0007 41.2932 40.0007 40.833C40.0007 40.3728 40.3738 39.9997 40.834 39.9997C41.2942 39.9997 41.6673 40.3728 41.6673 40.833C41.6673 41.2932 41.2942 41.6663 40.834 41.6663Z" fill="#076FCD"/>
<path d="M47.5 13.3333H44.1667V3.84083L40.3333 0H24.1667V13.3333H18.0833C17.3446 10.8652 15.0763 9.1724 12.5 9.16667H10.8333C8.25708 9.1724 5.98875 10.8652 5.25 13.3333H2.5C1.11927 13.3333 0 14.4526 0 15.8333V44.1667C0 45.5474 1.11927 46.6667 2.5 46.6667H5.57083C6.53521 48.6998 8.58302 49.9969 10.8333 50H12.5C14.7503 49.9969 16.7981 48.6998 17.7625 46.6667H47.5C48.8807 46.6667 50 45.5474 50 44.1667V15.8333C50 14.4526 48.8807 13.3333 47.5 13.3333ZM2.5 45C2.03979 45 1.66667 44.6269 1.66667 44.1667V15.8333C1.66667 15.3731 2.03979 15 2.5 15H5V44.1667C5.00229 44.4456 5.02458 44.7242 5.06667 45H2.5ZM16.6667 44.1667C16.664 46.4667 14.8 48.3306 12.5 48.3333H10.8333C8.53333 48.3306 6.66937 46.4667 6.66667 44.1667V15C6.66937 12.7 8.53333 10.836 10.8333 10.8333H12.5C14.8 10.836 16.664 12.7 16.6667 15V44.1667ZM25.8333 1.66667H39.6442L42.5 4.53V13.3333H25.8333V1.66667ZM48.3333 44.1667C48.3333 44.6269 47.9602 45 47.5 45H18.2667C18.3088 44.7242 18.331 44.4456 18.3333 44.1667V15H47.5C47.9602 15 48.3333 15.3731 48.3333 15.8333V44.1667Z" fill="#076FCD"/>
<path d="M24.166 16.667V23.3337H44.166V16.667H24.166ZM42.4994 21.667H25.8327V18.3337H42.4994V21.667Z" fill="#076FCD"/>
<path d="M39.1667 3.33301H27.5V4.99967H39.1667V3.33301Z" fill="#076FCD"/>
<path d="M39.1667 6.66699H27.5V8.33366H39.1667V6.66699Z" fill="#076FCD"/>
<path d="M39.1667 10H27.5V11.6667H39.1667V10Z" fill="#076FCD"/>
</svg>
