<svg width="15" height="15" viewBox="0 0 15 15" fill="none" xmlns="http://www.w3.org/2000/svg">
<path d="M13.196 3.4371H11.0274V3.21431C11.0274 2.21895 10.2196 1.41113 9.22423 1.41113H5.77536C4.77961 1.41113 3.97219 2.21895 3.97219 3.21431V3.4371H1.80317C0.807421 3.4371 0 4.24452 0 5.24027V11.7854C0 12.7807 0.807421 13.5886 1.80317 13.5886H13.1968C14.1926 13.5886 15 12.7807 15 11.7854V5.24027C14.9992 4.24412 14.1918 3.4371 13.196 3.4371ZM7.4992 11.7181C5.62069 11.7181 4.0932 10.1906 4.0932 8.31208C4.0932 6.43397 5.62069 4.90608 7.4992 4.90608C9.3777 4.90608 10.9052 6.43357 10.9052 8.31208C10.9052 10.1906 9.3773 11.7181 7.4992 11.7181ZM9.30237 8.31208C9.30237 9.30543 8.49295 10.1153 7.4992 10.1153C6.50545 10.1153 5.69603 9.30543 5.69603 8.31208C5.69603 7.31833 6.50545 6.5089 7.4992 6.5089C8.49295 6.5089 9.30237 7.31833 9.30237 8.31208Z" fill="white"/>
</svg>
