<svg width="14" height="14" viewBox="0 0 14 14" fill="none" xmlns="http://www.w3.org/2000/svg">
<g clip-path="url(#clip0)">
<path d="M9.73501 0.437378H7.82045L4.53906 2.89832H6.45359L9.73501 0.437378Z" fill="white"/>
<path d="M13.0435 0.437378H11.1017L7.82031 2.89832H9.73484L13.0435 0.437378Z" fill="white"/>
<path d="M11.1016 2.89837H14.0002V0.847591C14.0002 0.815954 13.989 0.788009 13.9823 0.758423L11.1016 2.89837Z" fill="white"/>
<path d="M1.23047 2.89832H3.17234L6.45375 0.437378H4.5392L1.23047 2.89832Z" fill="white"/>
<path d="M0 13.1522C0 13.3789 0.183449 13.5624 0.410156 13.5624H13.5898C13.8166 13.5624 14 13.3789 14 13.1522V3.71863H0V13.1522ZM4.94922 5.76941C4.94922 5.62162 5.02852 5.48542 5.15711 5.41252C5.28571 5.33962 5.44351 5.34162 5.57047 5.41771L9.67203 7.87865C9.79541 7.95275 9.87109 8.08614 9.87109 8.23032C9.87109 8.3745 9.79538 8.50789 9.67203 8.58199L5.57047 11.0429C5.44343 11.119 5.28557 11.121 5.15711 11.0481C5.02852 10.9753 4.94922 10.8391 4.94922 10.6913V5.76941Z" fill="white"/>
<path d="M0.410156 0.437378C0.183449 0.437378 0 0.620827 0 0.847534V2.79597L3.17231 0.437378H0.410156Z" fill="white"/>
</g>
<defs>
<clipPath id="clip0">
<rect width="14" height="14" fill="white" transform="translate(0 -0.00012207)"/>
</clipPath>
</defs>
</svg>
