<svg width="40" height="40" viewBox="0 0 40 40" fill="none" xmlns="http://www.w3.org/2000/svg">
<g clip-path="url(#clip0)">
<path d="M13.6258 21.8229C15.7209 19.8866 20.9326 14.5066 20.9326 8.89883C20.9326 3.99203 16.9405 0 12.0337 0C7.1268 0 3.13477 3.99203 3.13477 8.89891C3.13477 14.5066 8.34641 19.8866 10.4416 21.823H5.04867V24.1667H16.7427C16.7828 23.3603 16.9089 22.5763 17.1109 21.823H13.6258V21.8229ZM12.0337 4.73977C14.3329 4.73977 16.2034 6.61023 16.2034 8.90945C16.2034 11.2087 14.3329 13.0792 12.0337 13.0792C9.73445 13.0792 7.86398 11.2087 7.86398 8.90945C7.86398 6.61023 9.73445 4.73977 12.0337 4.73977Z" fill="#076FCD"/>
<path d="M12.033 10.7359C13.0398 10.7359 13.859 9.9168 13.859 8.90993C13.859 7.90313 13.0398 7.08398 12.033 7.08398C11.0261 7.08398 10.207 7.90313 10.207 8.90993C10.207 9.9168 11.0261 10.7359 12.033 10.7359Z" fill="#076FCD"/>
<path d="M27.9724 22.917C26.9655 22.917 26.1465 23.7361 26.1465 24.743C26.1465 25.7498 26.9655 26.5689 27.9724 26.5689C28.9793 26.5689 29.7984 25.7498 29.7984 24.743C29.7984 23.7361 28.9792 22.917 27.9724 22.917Z" fill="#076FCD"/>
<path d="M29.5652 37.6559C31.6604 35.7196 36.872 30.3396 36.872 24.7319C36.872 19.825 32.88 15.833 27.9731 15.833C23.0662 15.833 19.0743 19.825 19.0743 24.7319C19.0743 30.3396 24.2859 35.7196 26.381 37.6559H9.00914C7.47266 37.6559 6.22266 36.4059 6.22266 34.8694C6.22266 33.3329 7.47266 32.0829 9.00914 32.0829H18.8803C18.6235 31.6257 18.3885 31.1704 18.1775 30.7184C18.0246 30.3907 17.8852 30.0644 17.7563 29.7392H9.00914C6.18031 29.7392 3.87891 32.0406 3.87891 34.8694C3.87891 37.6982 6.18031 39.9996 9.00914 39.9996H34.9581V37.6559H29.5652ZM27.9731 20.5728C30.2723 20.5728 32.1429 22.4433 32.1429 24.7425C32.1429 27.0418 30.2723 28.9122 27.9731 28.9122C25.6739 28.9122 23.8034 27.0418 23.8034 24.7425C23.8034 22.4433 25.6739 20.5728 27.9731 20.5728Z" fill="#076FCD"/>
</g>
<defs>
<clipPath id="clip0">
<rect width="40" height="40" fill="white"/>
</clipPath>
</defs>
</svg>
