<svg width="90" height="90" viewBox="0 0 90 90" fill="none" xmlns="http://www.w3.org/2000/svg">
<g clip-path="url(#clip0)">
<path d="M62.4516 65.3504L53.1267 55.1585V42.7603H36.8673V55.1623L27.646 65.3504H62.4516Z" fill="#FFDDCE"/>
<path d="M60.7557 65.167L52.3961 62.7127L45 71.1936L32.2119 56.5286L18.6182 60.5184C13.3123 62.0759 9.66748 66.944 9.66748 72.4739V85.5908C9.66748 88.0259 11.6417 90 14.0769 90H20.0572L21.1349 89.2309H21.6955L22.7732 90H67.2204L68.8025 88.8711H70.1145V77.6684C70.1147 71.8862 66.3037 66.7958 60.7557 65.167Z" fill="#407093"/>
<path d="M71.3828 60.518L57.7905 56.5276L51.4717 63.7731L59.9157 66.2522C65.2213 67.8098 68.8656 72.6778 68.8656 78.2072V88.8712H69.9371V90H75.9234C78.3587 90 80.3327 88.0258 80.3327 85.5907V72.4732C80.3327 66.9437 76.6884 62.0756 71.3828 60.518Z" fill="#365E7D"/>
<path d="M22.7734 90V82.7879C22.7734 82.0378 22.1654 81.4298 21.4153 81.4298C20.6653 81.4298 20.0573 82.0378 20.0573 82.7879V90H22.7734Z" fill="#365E7D"/>
<path d="M69.9369 90V82.7879C69.9369 82.0378 69.3289 81.4298 68.5788 81.4298C67.8287 81.4298 67.2207 82.0378 67.2207 82.7879V90H69.9369Z" fill="#365E7D"/>
<path d="M20.5005 26.5756L19.1081 25.0403H16.1321L14.7398 26.5756L12.9048 37.3457C12.7317 38.3622 13.5148 39.2902 14.5461 39.2902H20.6938C21.7252 39.2902 22.5083 38.3622 22.3351 37.3457L20.5005 26.5756Z" fill="#E4F6FF"/>
<path d="M18.9784 23.9576V10.3387C18.9784 9.58862 18.3704 8.98059 17.6203 8.98059C16.8702 8.98059 16.2622 9.58862 16.2622 10.3387V23.9576H18.9784Z" fill="#407093"/>
<path d="M52.5245 9.24744H52.225H37.7692H37.4697C32.0272 9.24744 27.6152 13.6594 27.6152 19.1019V19.2571V28.6071L29.2449 30.0429H62.3788V19.2571V19.1019C62.379 13.6595 57.9669 9.24744 52.5245 9.24744Z" fill="#EFC984"/>
<path d="M52.5246 9.24744H52.225H50.9492V30.0429H60.8745L62.3789 28.6071V19.2571V19.1019C62.379 13.6595 57.9669 9.24744 52.5246 9.24744Z" fill="#EABC6B"/>
<path d="M45.0001 49.9354C45.1639 49.9354 45.3268 49.9325 45.4893 49.9271C49.3774 47.4577 52.0183 43.2005 52.2537 38.3102V21.0983H33.5564V25.6278C33.5564 27.2733 32.2223 28.6071 30.577 28.6071H27.6183V33.4792C27.6183 34.7241 28.6274 35.7335 29.8725 35.7335C30.2652 35.7335 30.5849 36.0413 30.6096 36.4332C31.0849 43.9693 37.3441 49.9354 45.0001 49.9354Z" fill="#FFDDCE"/>
<path d="M59.4233 28.6071C57.7778 28.6071 56.444 27.2733 56.444 25.6278V21.0983H50.9494V37.8673C50.7001 43.0479 47.7189 47.5096 43.4158 49.8462C43.9364 49.9032 44.4643 49.9354 45.0001 49.9354C52.6561 49.9354 58.9153 43.9693 59.3906 36.4332C59.4154 36.0413 59.7349 35.7335 60.1276 35.7335C61.3725 35.7335 62.3819 34.7243 62.3819 33.4792V28.6071H59.4233Z" fill="#FFCBBE"/>
<path d="M52.2535 15.3147V11.9576C50.5994 11.9446 49.2623 10.6009 49.2623 8.94365V2.91049L47.9933 0.877226L45.4633 0.0725C45.1599 -0.0240039 44.8342 -0.0240039 44.5308 0.0725L16.9875 8.83326C15.451 9.32193 15.606 11.5449 17.1954 11.8156L44.9971 16.5506L52.2535 15.3147Z" fill="#407093"/>
<path d="M52.2537 12.0095L48.2478 11.514C46.0888 11.2469 43.9052 11.2469 41.7464 11.5141L26.5012 13.4006V20.1943C26.5012 20.9304 27.098 21.5272 27.8342 21.5272H52.2537V12.0095Z" fill="#4A80AA"/>
<path d="M73.0068 8.83323L47.9933 0.877197V8.84835C47.9933 10.4859 49.3146 11.8138 50.949 11.8266V15.537L72.7987 11.8157C74.3883 11.5447 74.5433 9.3219 73.0068 8.83323Z" fill="#365E7D"/>
<path d="M50.9493 11.848V21.527H62.1658C62.9019 21.527 63.4987 20.9302 63.4987 20.1941V13.4003L50.9493 11.848Z" fill="#407093"/>
<path d="M20.5005 26.5755H14.74V22.7941C14.74 21.9906 15.3913 21.3394 16.1948 21.3394H19.0456C19.8491 21.3394 20.5003 21.9906 20.5003 22.7941V26.5755H20.5005Z" fill="#FFE07D"/>
<path d="M53.1268 50.6196C53.1268 55.8945 51.5956 61.0559 48.7191 65.4774L45.0001 71.1938L65.7493 58.8641L53.1268 50.6196Z" fill="#4A80AA"/>
<path d="M36.8734 50.6196C36.8734 55.8945 38.4046 61.0559 41.2811 65.4774L45.0001 71.1938L24.2509 58.8641L36.8734 50.6196Z" fill="#4A80AA"/>
<path d="M51.9261 58.6074C49.7921 59.0773 47.4537 59.3378 45 59.3378C42.5464 59.3378 40.2078 59.0773 38.0739 58.6074C38.8148 61.023 39.8886 63.3373 41.2808 65.4773L45 71.1937L48.719 65.4773C50.1114 63.3373 51.1852 61.023 51.9261 58.6074Z" fill="#F4FBFF"/>
</g>
<defs>
<clipPath id="clip0">
<rect width="90" height="90" fill="white"/>
</clipPath>
</defs>
</svg>
