<svg width="16" height="16" viewBox="0 0 16 16" fill="none" xmlns="http://www.w3.org/2000/svg">
<path d="M0.96875 6.35034V14.5937C0.96875 14.8102 1.02197 15.0129 1.10969 15.1962L5.46216 10.8437C3.79425 9.17584 2.70281 8.08437 0.96875 6.35034Z" fill="#076FCD"/>
<path d="M10.5381 10.8437L14.8906 15.1962C14.9783 15.0129 15.0315 14.8102 15.0315 14.5937V6.35034C13.3674 8.01447 12.2242 9.15759 10.5381 10.8437Z" fill="#076FCD"/>
<path d="M8 4.75C7.74181 4.75 7.53125 4.96012 7.53125 5.21875C7.53125 5.47738 7.74181 5.6875 8 5.6875C8.32463 5.6875 8.41072 5.46491 8.46222 5.18647C8.44472 4.94369 8.24675 4.75 8 4.75Z" fill="#076FCD"/>
<path d="M9.68084 11.3125H6.31902L1.77246 15.8591C1.9558 15.9468 2.15846 16 2.37493 16H13.6249C13.8414 16 14.0441 15.9468 14.2274 15.8591L9.68084 11.3125Z" fill="#076FCD"/>
<path d="M1.4375 5.49353L2.84375 6.89977V4.08728L1.4375 5.49353Z" fill="#076FCD"/>
<path d="M13.1562 4.08728V6.89977L14.5625 5.49353L13.1562 4.08728Z" fill="#076FCD"/>
<path d="M11.6182 0H4.29394C4.01078 0 3.78125 0.229531 3.78125 0.512688V7.83716L6.31909 10.375H9.68091L12.2188 7.83716V0.600594C12.2188 0.268906 11.9498 0 11.6182 0ZM8.93716 6.25953C8.68784 6.48425 8.36128 6.625 8 6.625C7.22456 6.625 6.59375 5.99419 6.59375 5.21875C6.59375 4.44331 7.22456 3.8125 8 3.8125C8.77544 3.8125 9.40625 4.44331 9.40625 5.21875C9.40625 5.83838 10.3438 5.83838 10.3438 5.21875C10.3438 3.92647 9.29272 2.875 8 2.875C6.70728 2.875 5.65625 3.92647 5.65625 5.21875C5.65625 6.02075 6.06091 6.75912 6.73931 7.194C7.43513 7.63894 8.29662 7.68106 9.10503 7.30981C9.66387 7.05019 10.0615 7.90203 9.49687 8.16125C8.42241 8.65556 7.22903 8.62059 6.23394 7.98319C5.28547 7.37528 4.71875 6.34209 4.71875 5.21875C4.71875 3.40966 6.19091 1.9375 8 1.9375C9.80909 1.9375 11.2812 3.40966 11.2812 5.21875C11.2812 6.42375 9.8485 7.08241 8.93716 6.25953Z" fill="#076FCD"/>
</svg>
