<svg width="50" height="52" viewBox="0 0 50 52" fill="none" xmlns="http://www.w3.org/2000/svg">
<path d="M35.7402 1H14.2559C12.2365 1 10.5938 2.64277 10.5938 4.66211V47.3379C10.5938 49.3572 12.2365 51 14.2559 51H35.7402C37.7596 51 39.4023 49.3572 39.4023 47.3379V4.66211C39.4023 2.64277 37.7596 1 35.7402 1ZM37.9375 40.7461H17.1855C16.7811 40.7461 16.4531 41.074 16.4531 41.4785C16.4531 41.883 16.7811 42.2109 17.1855 42.2109H37.9375V47.3379C37.9375 48.5495 36.9519 49.5352 35.7402 49.5352H14.2559C13.0442 49.5352 12.0586 48.5495 12.0586 47.3379V42.2109H14.2559C14.6604 42.2109 14.9883 41.883 14.9883 41.4785C14.9883 41.074 14.6604 40.7461 14.2559 40.7461H12.0586V8.32422H37.9375V40.7461ZM37.9375 6.85938H12.0586V4.66211C12.0586 3.45049 13.0442 2.46484 14.2559 2.46484H35.7402C36.9519 2.46484 37.9375 3.45049 37.9375 4.66211V6.85938Z" fill="#076FCD" stroke="#076FCD" stroke-width="0.5"/>
<path d="M27.9277 3.92969H24.998C24.5936 3.92969 24.2656 4.25762 24.2656 4.66211C24.2656 5.0666 24.5936 5.39453 24.998 5.39453H27.9277C28.3322 5.39453 28.6602 5.0666 28.6602 4.66211C28.6602 4.25762 28.3322 3.92969 27.9277 3.92969Z" fill="#076FCD"/>
<path d="M25.002 43.6758C23.7903 43.6758 22.8047 44.6614 22.8047 45.873C22.8047 47.0847 23.7903 48.0703 25.002 48.0703C26.2136 48.0703 27.1992 47.0847 27.1992 45.873C27.1992 44.6614 26.2136 43.6758 25.002 43.6758ZM25.002 46.6055C24.598 46.6055 24.2695 46.277 24.2695 45.873C24.2695 45.4691 24.598 45.1406 25.002 45.1406C25.4059 45.1406 25.7344 45.4691 25.7344 45.873C25.7344 46.277 25.4059 46.6055 25.002 46.6055Z" fill="#076FCD"/>
<path d="M22.0684 5.39453C22.4729 5.39453 22.8008 5.06661 22.8008 4.66211C22.8008 4.2576 22.4729 3.92969 22.0684 3.92969C21.6639 3.92969 21.3359 4.2576 21.3359 4.66211C21.3359 5.06661 21.6639 5.39453 22.0684 5.39453Z" fill="#076FCD"/>
</svg>
