<svg width="36" height="36" viewBox="0 0 36 36" fill="none" xmlns="http://www.w3.org/2000/svg">
<rect width="36" height="36" rx="5" fill="#F79A38"/>
<path d="M24.2376 20.7928C24.7624 20.2681 24.8373 19.5185 24.3876 18.7689C24.0128 18.1692 23.3381 17.8694 22.5885 18.0193C22.2887 18.0942 21.9888 18.2442 21.689 18.469C19.3652 20.0432 16.2168 19.9683 13.893 18.3941C13.7431 18.3191 13.5932 18.2442 13.4433 18.1692C12.6187 17.7944 11.7941 17.9443 11.3444 18.6939C10.8196 19.4435 10.8946 20.2681 11.5692 20.9428C11.7192 21.0927 11.8691 21.1676 11.944 21.3176L12.019 21.3925C13.0685 22.2171 14.3428 22.7418 15.9919 22.9667L15.0174 23.9412C14.1929 24.7658 13.2933 25.6653 12.4688 26.4899C12.2439 26.7148 11.944 27.0896 11.944 27.6143C11.944 28.2889 12.3188 28.9636 12.9935 29.2634C13.2184 29.4133 13.4433 29.4133 13.6681 29.4133C14.0429 29.4133 14.4927 29.2634 14.7926 28.8886C15.917 27.7642 16.8165 26.8647 17.716 25.9651C17.791 25.8902 17.791 25.8902 17.791 25.8902C17.791 25.8902 17.866 25.8902 17.866 25.9651C18.4656 26.6398 19.1403 27.2395 19.74 27.9141C20.0398 28.214 20.3397 28.5138 20.6395 28.8137C21.0143 29.1885 21.3142 29.3384 21.7639 29.3384C22.4386 29.4134 23.1882 28.9636 23.488 28.2889C23.7879 27.6892 23.638 26.9396 23.1132 26.4899C22.3636 25.7403 21.614 24.9157 20.7894 24.1661L19.5151 22.8917C20.1898 22.8168 20.9394 22.6669 21.614 22.367C22.7384 21.9922 23.563 21.4675 24.2376 20.7928Z" fill="white"/>
<path d="M17.791 18.6939C21.0143 18.6939 23.638 16.1452 23.638 12.9219C23.638 11.3477 23.0383 9.84852 21.9138 8.72411C20.7894 7.59969 19.3652 7 17.866 7C14.6426 7 12.094 9.62363 12.019 12.772C12.019 14.3462 12.6187 15.7704 13.7431 16.8948C14.7926 18.0942 16.2168 18.6939 17.791 18.6939ZM16.1419 11.1978C16.5916 10.7481 17.1913 10.5232 17.791 10.5232C19.1403 10.5232 20.1148 11.5726 20.1148 12.847C20.1148 14.1963 19.0653 15.1707 17.791 15.1707C16.4417 15.1707 15.4672 14.1213 15.4672 12.847C15.4672 12.2473 15.6921 11.6476 16.1419 11.1978Z" fill="white"/>
<path d="M24.2376 20.7928C24.7624 20.2681 24.8373 19.5185 24.3876 18.7689C24.0128 18.1692 23.3381 17.8694 22.5885 18.0193C22.2887 18.0942 21.9888 18.2442 21.689 18.469C19.3652 20.0432 16.2168 19.9683 13.893 18.3941C13.7431 18.3191 13.5932 18.2442 13.4433 18.1692C12.6187 17.7944 11.7941 17.9443 11.3444 18.6939C10.8196 19.4435 10.8946 20.2681 11.5692 20.9428C11.7192 21.0927 11.8691 21.1676 11.944 21.3176L12.019 21.3925C13.0685 22.2171 14.3428 22.7418 15.9919 22.9667L15.0174 23.9412C14.1929 24.7658 13.2933 25.6653 12.4688 26.4899C12.2439 26.7148 11.944 27.0896 11.944 27.6143C11.944 28.2889 12.3188 28.9636 12.9935 29.2634C13.2184 29.4133 13.4433 29.4133 13.6681 29.4133C14.0429 29.4133 14.4927 29.2634 14.7926 28.8886C15.917 27.7642 16.8165 26.8647 17.716 25.9651C17.791 25.8902 17.791 25.8902 17.791 25.8902C17.791 25.8902 17.866 25.8902 17.866 25.9651C18.4656 26.6398 19.1403 27.2395 19.74 27.9141C20.0398 28.214 20.3397 28.5138 20.6395 28.8137C21.0143 29.1885 21.3142 29.3384 21.7639 29.3384C22.4386 29.4134 23.1882 28.9636 23.488 28.2889C23.7879 27.6892 23.638 26.9396 23.1132 26.4899C22.3636 25.7403 21.614 24.9157 20.7894 24.1661L19.5151 22.8917C20.1898 22.8168 20.9394 22.6669 21.614 22.367C22.7384 21.9922 23.563 21.4675 24.2376 20.7928Z" fill="white"/>
</svg>
