<svg width="36" height="36" viewBox="0 0 36 36" fill="none" xmlns="http://www.w3.org/2000/svg">
<rect width="36" height="36" rx="5" fill="#7294C7"/>
<path d="M28.6727 22.876C28.6727 22.793 28.5897 22.793 28.5897 22.71C28.2576 22.0458 27.5104 21.2155 26.5141 20.3023C26.016 19.8872 25.7669 19.5551 25.6009 19.389C25.3518 19.0569 25.3518 18.8079 25.4348 18.4758C25.5179 18.2267 25.8499 17.8116 26.4311 17.0644C26.7632 16.6493 26.9292 16.4002 27.1783 16.1511C28.4236 14.4907 29.0048 13.4114 28.8387 12.9132L28.7557 12.8302C28.6727 12.7472 28.5897 12.6642 28.4236 12.6642C28.2576 12.5812 28.0085 12.5812 27.7595 12.6642H24.6046C24.5216 12.6642 24.5216 12.6642 24.3555 12.6642C24.2725 12.6642 24.1895 12.6642 24.1895 12.6642H24.1065H24.0234L23.9404 12.7472C23.8574 12.8302 23.8574 12.8302 23.8574 12.9132C23.5253 13.8265 23.1102 14.5737 22.6951 15.4039C22.446 15.819 22.1969 16.2342 21.9479 16.5663C21.6988 16.8984 21.5327 17.1474 21.3667 17.3135C21.2006 17.4795 21.0346 17.5625 20.9516 17.7286C20.8685 17.8116 20.7025 17.8946 20.7025 17.8116C20.6195 17.8116 20.5365 17.8116 20.5365 17.7286C20.4534 17.6456 20.3704 17.5625 20.2874 17.4795C20.2044 17.3965 20.2044 17.2304 20.1213 17.0644C20.1213 16.8983 20.1213 16.7323 20.1213 16.6493C20.1213 16.5663 20.1213 16.3172 20.1213 16.1511C20.1213 15.9021 20.1213 15.736 20.1213 15.653C20.1213 15.4039 20.1213 15.0719 20.1213 14.7398C20.1213 14.4077 20.1213 14.1586 20.1213 13.9925C20.1213 13.8265 20.1213 13.5774 20.1213 13.4114C20.1213 13.1623 20.1213 12.9963 20.1213 12.9132C20.1213 12.8302 20.0383 12.6642 20.0383 12.5812C19.9553 12.4981 19.8723 12.4151 19.7893 12.3321C19.7062 12.2491 19.5402 12.2491 19.4572 12.166C19.0421 12.083 18.5439 12 17.9628 12C16.6344 12 15.7211 12.083 15.389 12.2491C15.223 12.3321 15.057 12.4151 14.9739 12.5812C14.8079 12.7472 14.8079 12.8302 14.8909 12.8302C15.306 12.9133 15.6381 13.0793 15.8042 13.3284L15.8872 13.4944C15.9702 13.5774 15.9702 13.7435 16.0532 13.9925C16.1362 14.2416 16.1362 14.4907 16.1362 14.8228C16.1362 15.3209 16.1362 15.8191 16.1362 16.1511C16.1362 16.5663 16.0532 16.8153 16.0532 17.0644C16.0532 17.3135 15.9702 17.4795 15.8872 17.5625C15.8042 17.7286 15.8042 17.8116 15.7211 17.8116C15.7211 17.8116 15.7211 17.8946 15.6381 17.8946C15.5551 17.8946 15.4721 17.9776 15.306 17.9776C15.223 17.9776 15.057 17.8946 14.9739 17.8116C14.8079 17.7286 14.6418 17.5625 14.5588 17.3965C14.3928 17.2304 14.2267 16.9814 14.0607 16.6493C13.8946 16.3172 13.6456 15.9851 13.4795 15.487L13.3135 15.1549C13.2305 14.9888 13.0644 14.6567 12.8984 14.2416C12.7323 13.8265 12.5663 13.4944 12.4002 13.0793C12.3172 12.9133 12.2342 12.8302 12.1512 12.7472H12.0681C12.0681 12.7472 11.9851 12.6642 11.9021 12.6642C11.8191 12.6642 11.736 12.5812 11.653 12.5812H8.66419C8.33209 12.5812 8.16605 12.6642 8.08303 12.7472L8 12.8302C8 12.8302 8 12.9132 8 12.9963C8 13.0793 8.00001 13.1623 8.08303 13.3284C8.49814 14.3246 8.99628 15.3209 9.49442 16.3172C9.99255 17.2304 10.4907 18.0607 10.8228 18.6418C11.2379 19.223 11.57 19.8042 11.9851 20.3023C12.4002 20.8004 12.6493 21.1325 12.7323 21.2986C12.8984 21.4646 12.9814 21.5476 13.0644 21.6307L13.3135 21.8797C13.4795 22.0458 13.7286 22.2948 14.0607 22.5439C14.3928 22.793 14.8079 23.042 15.223 23.2911C15.6381 23.5402 16.1363 23.7062 16.6344 23.8723C17.2156 24.0383 17.7137 24.1213 18.2118 24.0383H19.4572C19.7062 24.0383 19.8723 23.9553 20.0383 23.7893L20.1213 23.7062C20.1213 23.6232 20.2044 23.6232 20.2044 23.5402C20.2044 23.4572 20.2044 23.3741 20.2044 23.2081C20.2044 22.876 20.2044 22.6269 20.2874 22.3779C20.3704 22.1288 20.3704 21.9628 20.4535 21.7967C20.5365 21.6307 20.6195 21.5476 20.7025 21.4646C20.7855 21.3816 20.8686 21.2986 20.8686 21.2986H20.9516C21.1176 21.2155 21.3667 21.2986 21.5327 21.4646C21.7818 21.6307 22.0309 21.8797 22.1969 22.1288C22.363 22.3779 22.612 22.6269 22.9441 22.959C23.2762 23.2911 23.5253 23.5402 23.6913 23.6232L23.9404 23.7893C24.1064 23.8723 24.2725 23.9553 24.5216 24.0383C24.7706 24.1213 24.9367 24.1213 25.1027 24.1213L27.9255 24.0383C28.1746 24.0383 28.4236 23.9553 28.5897 23.8723C28.7557 23.7893 28.8387 23.7062 28.8387 23.5402C28.8387 23.4572 28.8387 23.2911 28.8387 23.2081C28.6727 23.042 28.6727 22.959 28.6727 22.876Z" fill="white"/>
</svg>
