<svg width="13" height="13" viewBox="0 0 13 13" fill="none" xmlns="http://www.w3.org/2000/svg">
<path d="M0.344244 6.60689C0.344329 6.60689 0.344414 6.60689 0.344499 6.60689L1.19726 6.60625C1.37387 6.60613 1.51692 6.46286 1.51679 6.28626C1.51602 5.22457 1.85772 4.21648 2.50493 3.37105C3.41904 2.17689 4.80951 1.49199 6.31971 1.49199C7.38084 1.49199 8.38702 1.83292 9.22959 2.47791C9.50882 2.6917 9.75953 2.93051 9.98108 3.19227L8.40637 2.91427C8.32293 2.89952 8.23693 2.91857 8.16739 2.96718C8.09789 3.01583 8.0506 3.09006 8.03585 3.17359L7.8876 4.01335C7.8569 4.18727 7.973 4.35313 8.14692 4.38383L11.9259 5.05099C11.9444 5.05427 11.9629 5.05585 11.9815 5.05585C12.0466 5.05585 12.1107 5.03594 12.1649 4.99807C12.2344 4.94942 12.2817 4.87519 12.2964 4.79166L12.9636 1.01265C12.9943 0.838733 12.8782 0.672871 12.7042 0.642172L11.8645 0.493919C11.6902 0.463092 11.5247 0.579323 11.494 0.753244L11.2132 2.34364C10.8983 1.95299 10.5366 1.59905 10.1367 1.29296C9.03175 0.447103 7.71223 0 6.32073 0C4.34139 0 2.51866 0.898085 1.31993 2.46392C0.471433 3.5723 0.0234775 4.89442 0.0244155 6.28736C0.0244582 6.37217 0.0582275 6.45348 0.118219 6.51343C0.178211 6.57329 0.259479 6.60689 0.344244 6.60689Z" fill="#02447E"/>
<path d="M12.8815 6.48657C12.8215 6.42671 12.7402 6.39307 12.6555 6.39307C12.6554 6.39307 12.6553 6.39307 12.6552 6.39307L11.8025 6.39371C11.6259 6.39383 11.4828 6.5371 11.483 6.7137C11.4837 7.77539 11.142 8.78348 10.4948 9.6289C9.58066 10.8231 8.19019 11.508 6.67999 11.508C5.6189 11.508 4.61273 11.167 3.77016 10.522C3.49092 10.3083 3.24021 10.0694 3.01866 9.80768L4.59337 10.0857C4.67698 10.1005 4.76286 10.0814 4.83231 10.0328C4.90181 9.98412 4.9491 9.90989 4.96385 9.82636L5.11206 8.98661C5.14276 8.81269 5.02666 8.64682 4.85274 8.61612L1.07377 7.94897C0.990369 7.93426 0.904325 7.95327 0.834825 8.00188C0.765325 8.05053 0.718039 8.12476 0.703287 8.20829L0.0361718 11.9873C0.00547238 12.1612 0.121576 12.3271 0.295496 12.3578L1.13525 12.506C1.15406 12.5094 1.17277 12.511 1.19124 12.511C1.34345 12.511 1.47836 12.4018 1.50578 12.2467L1.78655 10.6563C2.10152 11.047 2.46321 11.4009 2.86307 11.707C3.96795 12.5528 5.28747 12.9999 6.67901 12.9999C8.6584 12.9999 10.4811 12.1019 11.6798 10.536C12.5283 9.42765 12.9762 8.10554 12.9753 6.7126C12.9752 6.62783 12.9415 6.54652 12.8815 6.48657Z" fill="#02447E"/>
</svg>
